<mxfile host="app.diagrams.net" modified="2023-05-13T20:44:22.387Z" agent="Mozilla/5.0 (Windows NT 10.0; Win64; x64; rv:109.0) Gecko/20100101 Firefox/113.0" etag="pF2XiDtQl1gR5lP61JjG" version="21.2.9" type="device">
  <diagram name="Strona-1" id="Uu0WhD-oibmJ6Q5krLVX">
    <mxGraphModel dx="1434" dy="782" grid="1" gridSize="10" guides="1" tooltips="1" connect="1" arrows="1" fold="1" page="1" pageScale="1" pageWidth="827" pageHeight="1169" math="0" shadow="0">
      <root>
        <mxCell id="0" />
        <mxCell id="1" parent="0" />
        <mxCell id="zo0r8RxoVhE8TmbRMtNV-1" value="" style="whiteSpace=wrap;html=1;aspect=fixed;" vertex="1" parent="1">
          <mxGeometry x="230" y="190" width="330" height="330" as="geometry" />
        </mxCell>
        <mxCell id="zo0r8RxoVhE8TmbRMtNV-2" value="Pacjent" style="shape=umlActor;verticalLabelPosition=bottom;verticalAlign=top;html=1;outlineConnect=0;" vertex="1" parent="1">
          <mxGeometry x="610" y="290" width="30" height="60" as="geometry" />
        </mxCell>
        <mxCell id="zo0r8RxoVhE8TmbRMtNV-3" value="Rejestracja" style="ellipse;whiteSpace=wrap;html=1;" vertex="1" parent="1">
          <mxGeometry x="430" y="250" width="106" height="60" as="geometry" />
        </mxCell>
        <mxCell id="zo0r8RxoVhE8TmbRMtNV-4" value="" style="endArrow=none;html=1;rounded=0;entryX=1;entryY=0.5;entryDx=0;entryDy=0;exitX=0.5;exitY=0.5;exitDx=0;exitDy=0;exitPerimeter=0;" edge="1" parent="1" source="zo0r8RxoVhE8TmbRMtNV-2" target="zo0r8RxoVhE8TmbRMtNV-3">
          <mxGeometry relative="1" as="geometry">
            <mxPoint x="330" y="280" as="sourcePoint" />
            <mxPoint x="490" y="280" as="targetPoint" />
          </mxGeometry>
        </mxCell>
        <mxCell id="zo0r8RxoVhE8TmbRMtNV-5" value="Zapisz pacjenta do lekrza" style="ellipse;whiteSpace=wrap;html=1;" vertex="1" parent="1">
          <mxGeometry x="270" y="220" width="120" height="70" as="geometry" />
        </mxCell>
        <mxCell id="zo0r8RxoVhE8TmbRMtNV-6" value="Recepjonistka" style="shape=umlActor;verticalLabelPosition=bottom;verticalAlign=top;html=1;outlineConnect=0;" vertex="1" parent="1">
          <mxGeometry x="130" y="290" width="30" height="60" as="geometry" />
        </mxCell>
        <mxCell id="zo0r8RxoVhE8TmbRMtNV-7" value="" style="endArrow=none;html=1;rounded=0;entryX=0.5;entryY=0.5;entryDx=0;entryDy=0;exitX=0;exitY=0.5;exitDx=0;exitDy=0;entryPerimeter=0;" edge="1" parent="1" source="zo0r8RxoVhE8TmbRMtNV-5" target="zo0r8RxoVhE8TmbRMtNV-6">
          <mxGeometry relative="1" as="geometry">
            <mxPoint x="269" y="250" as="sourcePoint" />
            <mxPoint x="180" y="250" as="targetPoint" />
          </mxGeometry>
        </mxCell>
        <mxCell id="zo0r8RxoVhE8TmbRMtNV-8" value="Opłać wizytę" style="ellipse;whiteSpace=wrap;html=1;" vertex="1" parent="1">
          <mxGeometry x="440" y="330" width="106" height="60" as="geometry" />
        </mxCell>
        <mxCell id="zo0r8RxoVhE8TmbRMtNV-9" value="" style="endArrow=none;html=1;rounded=0;entryX=0.981;entryY=0.4;entryDx=0;entryDy=0;exitX=0.5;exitY=0.5;exitDx=0;exitDy=0;exitPerimeter=0;entryPerimeter=0;" edge="1" parent="1" source="zo0r8RxoVhE8TmbRMtNV-2" target="zo0r8RxoVhE8TmbRMtNV-8">
          <mxGeometry relative="1" as="geometry">
            <mxPoint x="635" y="250" as="sourcePoint" />
            <mxPoint x="546" y="250" as="targetPoint" />
          </mxGeometry>
        </mxCell>
        <mxCell id="zo0r8RxoVhE8TmbRMtNV-11" value="&lt;div&gt;Przypisz lekarzowi asystentkę&lt;/div&gt;" style="ellipse;whiteSpace=wrap;html=1;" vertex="1" parent="1">
          <mxGeometry x="270" y="340" width="120" height="70" as="geometry" />
        </mxCell>
        <mxCell id="zo0r8RxoVhE8TmbRMtNV-12" value="Wpisz w grafik" style="ellipse;whiteSpace=wrap;html=1;" vertex="1" parent="1">
          <mxGeometry x="270" y="420" width="120" height="70" as="geometry" />
        </mxCell>
        <mxCell id="zo0r8RxoVhE8TmbRMtNV-13" value="" style="endArrow=none;html=1;rounded=0;entryX=0.5;entryY=0.5;entryDx=0;entryDy=0;exitX=0;exitY=0.5;exitDx=0;exitDy=0;entryPerimeter=0;" edge="1" parent="1" source="zo0r8RxoVhE8TmbRMtNV-11" target="zo0r8RxoVhE8TmbRMtNV-6">
          <mxGeometry relative="1" as="geometry">
            <mxPoint x="280" y="305" as="sourcePoint" />
            <mxPoint x="155" y="330" as="targetPoint" />
          </mxGeometry>
        </mxCell>
        <mxCell id="zo0r8RxoVhE8TmbRMtNV-14" value="" style="endArrow=none;html=1;rounded=0;entryX=0.5;entryY=0.5;entryDx=0;entryDy=0;entryPerimeter=0;exitX=0.05;exitY=0.314;exitDx=0;exitDy=0;exitPerimeter=0;" edge="1" parent="1" source="zo0r8RxoVhE8TmbRMtNV-12" target="zo0r8RxoVhE8TmbRMtNV-6">
          <mxGeometry relative="1" as="geometry">
            <mxPoint x="290" y="315" as="sourcePoint" />
            <mxPoint x="165" y="340" as="targetPoint" />
          </mxGeometry>
        </mxCell>
        <mxCell id="zo0r8RxoVhE8TmbRMtNV-16" value="Rejestracja wizyty" style="rounded=0;whiteSpace=wrap;html=1;" vertex="1" parent="1">
          <mxGeometry x="270" y="140" width="250" height="50" as="geometry" />
        </mxCell>
      </root>
    </mxGraphModel>
  </diagram>
</mxfile>
